<svg width="38" height="38" viewBox="0 0 38 38" fill="none" xmlns="http://www.w3.org/2000/svg">
<path fill-rule="evenodd" clip-rule="evenodd" d="M37.9099 24.0908C37.9099 16.4313 31.8115 10.222 24.2888 10.222C16.7661 10.222 10.6677 16.4313 10.6677 24.0908C10.6677 31.7504 16.7661 37.9597 24.2888 37.9597C31.8115 37.9597 37.9099 31.7504 37.9099 24.0908ZM28.8264 12.8798C28.6155 12.8077 28.3939 12.9422 28.3454 13.1633C28.3008 13.3665 28.4198 13.569 28.6138 13.6348C30.5582 14.2947 32.2706 15.6604 33.4936 17.5347C34.7891 19.52 35.4577 21.9565 35.3886 24.4404C35.3196 26.9243 34.517 29.3064 33.114 31.1917C31.7912 32.9693 30.0094 34.2047 28.0355 34.7206C27.8346 34.7731 27.7009 34.9706 27.7345 35.179C27.7702 35.4011 27.9811 35.5487 28.1952 35.4926C30.3097 34.9379 32.2183 33.6135 33.6357 31.7088C35.1409 29.6861 36.0019 27.1306 36.076 24.4658C36.1501 21.8011 35.4328 19.1871 34.043 17.0573C32.7348 15.0525 30.9048 13.5901 28.8264 12.8798Z" fill="#65BC30"/>
<path fill-rule="evenodd" clip-rule="evenodd" d="M1.3996 1.52777C0.720918 2.25715 0.751458 3.40863 1.46781 4.09965L13.9137 16.1055C14.6301 16.7966 15.761 16.7655 16.4397 16.0361C17.1184 15.3067 17.0878 14.1552 16.3715 13.4642L3.92554 1.45831C3.20918 0.767284 2.07828 0.79838 1.3996 1.52777ZM2.09924 2.24057C1.80605 2.55567 1.81924 3.0531 2.12871 3.35162L3.98091 5.13834C4.29037 5.43686 4.77892 5.42343 5.07211 5.10833C5.36529 4.79324 5.3521 4.29581 5.04264 3.99729L3.19044 2.21057C2.88097 1.91205 2.39243 1.92548 2.09924 2.24057Z" fill="#65BC30"/>
</svg>
