<svg width="124" height="124" viewBox="0 0 124 124" fill="none" xmlns="http://www.w3.org/2000/svg">
<path d="M37.1754 62.4749V84.792C37.1754 85.3624 37.6413 85.8178 38.2111 85.7911C53.2375 85.0882 83.064 83.5821 94.2749 87.2624C94.9616 87.4878 95.6983 86.9902 95.6983 86.2673V67.0096" stroke="#65BC30" stroke-width="4"/>
<path d="M60.276 0.000700647C41.8189 0.108947 27.8548 17.0138 37.1753 28.9162C37.2908 15.1255 47.2886 4.00057 60.276 3.99232C73.2714 3.98407 81.8429 13.973 83.4061 28.9162C87.5366 12.3389 78.7331 -0.107545 60.276 0.000700647Z" fill="#65BC30"/>
<path d="M52.3888 70.783C66.296 70.7015 76.8179 57.9638 69.7949 48.9955C69.7079 59.3866 62.1747 67.0156 52.3888 67.0218C42.5969 67.028 36.1383 60.2551 34.9605 48.9955C31.8482 61.4863 38.4815 70.8646 52.3888 70.783Z" fill="#65BC30"/>
<path d="M119.528 53.8054C122.157 40.7448 109.999 27.914 98.6181 32.4129C110.197 34.9125 117.119 43.9604 115.212 53.1386C113.304 62.3225 104.297 66.0888 84.4092 67.0139C104.205 71.1765 116.9 66.8659 119.528 53.8054Z" fill="#65BC30"/>
<path d="M8.48041 42.2448C9.02226 56.7863 19.1842 65.2849 39.2098 65.285L39.2098 61.732C39.2098 61.732 13.3792 62.8087 13.2177 42.2448C13.0562 21.6808 34.589 20.981 34.589 20.981L35.1274 16.9974C20.9695 16.513 7.94661 27.9193 8.48041 42.2448Z" fill="#65BC30"/>
<path fill-rule="evenodd" clip-rule="evenodd" d="M107.707 14.9162C99.5414 10.2054 88.9321 11.7026 82.6616 16.8581H83.1705V21.3202C90.0144 15.9777 98.5073 14.7749 105.135 18.653C111.843 22.5777 114.038 29.4733 111.645 37.8324H114.429C119.131 29.1759 117.211 20.3997 107.707 14.9162Z" fill="#65BC30"/>
<path fill-rule="evenodd" clip-rule="evenodd" d="M65.4818 62.4749C68.142 67.637 73.7904 70.8308 81.9313 70.7831C95.8386 70.7015 107.394 61.2417 99.0804 52.4594C101.665 63.5472 91.7172 67.0156 81.9313 67.0218C75.7688 67.0257 70.9265 64.3445 67.89 59.5497V62.4749H65.4818Z" fill="#65BC30"/>
<path d="M37.1754 76.0539C47.242 76.6973 51.8835 76.6932 62.7093 78.4284C50.5121 77.8574 45.815 78.5501 37.1754 78.9167L37.1754 76.0539Z" fill="#65BC30"/>
<path d="M94.7308 72.8997C87.1219 73.2518 82.2703 72.9281 74.0875 73.8776C83.3068 73.5652 88.2005 74.2657 94.7308 74.4662L94.7308 72.8997Z" fill="#65BC30"/>
<path d="M79.0863 103.458C86.2748 110.899 97.7463 117.74 103.642 106.505C106.951 125.308 76.133 128.24 66.9951 116.484C60.1741 104.856 73.776 97.9617 79.0863 103.458Z" fill="#65BC30"/>
<path d="M55.9183 103.458C48.7298 110.899 37.2583 117.74 31.3623 106.505C28.0539 125.308 58.8716 128.24 68.0094 116.484C74.8305 104.856 61.2286 97.9617 55.9183 103.458Z" fill="#65BC30"/>
</svg>
