<svg width="38" height="38" viewBox="0 0 38 38" fill="none" xmlns="http://www.w3.org/2000/svg">
<path d="M18.5039 21.6884L21.3446 18.815L36.8721 34.521C37.6566 35.3145 37.6566 36.6009 36.8721 37.3944C36.0877 38.1879 34.8158 38.1879 34.0314 37.3944L18.5039 21.6884Z" fill="#65BC30"/>
<path fill-rule="evenodd" clip-rule="evenodd" d="M2.09584 16.6672C0.0708413 15.0366 -0.0997886 11.9862 1.73044 10.1349L9.50194 2.2741C11.3322 0.422766 14.3481 0.595434 15.9601 2.64386L23.0214 11.6165C24.3948 13.3617 24.2544 15.8717 22.695 17.449L16.7325 23.48C15.1731 25.0574 12.6915 25.1994 10.9661 23.8101L2.09584 16.6672ZM3.16557 13.925C2.67698 13.48 2.63753 12.7186 3.07746 12.2244C3.51739 11.7302 4.27009 11.6903 4.75868 12.1353L14.2343 20.7652C14.7228 21.2102 14.7623 21.9716 14.3224 22.4658C13.8824 22.96 13.1297 22.9999 12.6411 22.5549L3.16557 13.925ZM5.90109 9.35521C5.44438 9.83358 5.45754 10.5959 5.93047 11.0578L15.1025 20.017C15.5755 20.479 16.3291 20.4657 16.7858 19.9873C17.2425 19.5089 17.2293 18.7466 16.7564 18.2847L7.58436 9.32549C7.11143 8.86353 6.3578 8.87684 5.90109 9.35521ZM8.70189 8.19519C8.24518 7.71682 8.25833 6.95453 8.73127 6.49257C9.20421 6.03061 9.95783 6.04392 10.4145 6.52229L19.2719 15.7998C19.7286 16.2782 19.7154 17.0404 19.2425 17.5024C18.7696 17.9644 18.0159 17.9511 17.5592 17.4727L8.70189 8.19519ZM11.568 3.63647C11.0794 4.08145 11.0399 4.84281 11.4799 5.33701L20.0117 14.9215C20.4516 15.4157 21.2043 15.4556 21.6929 15.0106C22.1815 14.5657 22.221 13.8043 21.781 13.3101L13.2492 3.72559C12.8093 3.23138 12.0565 3.19148 11.568 3.63647Z" fill="#65BC30"/>
</svg>
