<svg width="42" height="40" viewBox="0 0 64 63" xmlns="http://www.w3.org/2000/svg">
<path d="M2.06123 31.1415L3.30517 31.0185L3.30517 31.0185L2.06123 31.1415ZM62.6911 31.1414L63.9353 31.2613L63.9353 31.2613L62.6911 31.1414ZM37.2807 27.3959V28.6459H38.5307V27.3959H37.2807ZM8.78542 27.3959L7.53542 27.3959L7.53542 28.6459L8.78542 28.6459L8.78542 27.3959ZM27.7821 27.3968L27.7819 28.6468L29.0321 28.647V27.3968H27.7821ZM18.2837 27.3968L17.0337 27.3968L17.0337 28.647L18.284 28.6468L18.2837 27.3968ZM22.5 19.25C23.1904 19.25 23.75 18.6904 23.75 18C23.75 17.3096 23.1904 16.75 22.5 16.75V19.25ZM38.723 14.8083L39.6956 14.0231L39.6956 14.0231L38.723 14.8083ZM40.5564 15.0582L41.2773 16.0794L41.2773 16.0794L40.5564 15.0582ZM47.2659 17.5896L46.0208 17.6997L46.0208 17.6997L47.2659 17.5896ZM48.9339 18.9914L48.7533 17.7546L48.7533 17.7546L48.9339 18.9914ZM8.08611 6.5636C7.59795 6.07544 6.8065 6.07544 6.31834 6.5636C5.83018 7.05175 5.83018 7.84321 6.31834 8.33137L8.08611 6.5636ZM59.4097 2.60105C59.8795 2.09516 59.8502 1.30425 59.3443 0.834497C58.8384 0.364743 58.0475 0.394036 57.5777 0.899924L59.4097 2.60105ZM37.9139 54.9239C42.6178 54.9239 47.4385 52.4168 51.0513 48.5963C54.6777 44.7615 57.2109 39.4783 57.2109 33.7273H54.7109C54.7109 38.7411 52.4949 43.4313 49.2349 46.8786C45.9614 50.3402 41.7586 52.4239 37.9139 52.4239V54.9239ZM2.76971 37.5126H15.1176V35.0126H2.76971V37.5126ZM6.25253 45.7445H20.1835V43.2445H6.25253V45.7445ZM11.635 53.9758H26.5158V51.4758H11.635V53.9758ZM0.817289 31.2644C2.88374 52.1713 17.5768 62.9342 32.3891 63.0001C47.2119 63.0661 61.895 52.4208 63.9353 31.2613L61.4469 31.0214C59.5276 50.9257 45.9002 60.5602 32.4002 60.5001C18.8897 60.44 5.24762 50.6709 3.30517 31.0185L0.817289 31.2644ZM57.9264 24.881H6.8199V27.381H57.9264V24.881ZM63.9353 31.2613C64.2785 27.7021 61.3467 24.881 57.9264 24.881V27.381C60.0288 27.381 61.6337 29.0833 61.4469 31.0214L63.9353 31.2613ZM3.30517 31.0185C3.11396 29.084 4.71661 27.381 6.8199 27.381V24.881C3.40035 24.881 0.465265 27.7029 0.817289 31.2644L3.30517 31.0185ZM38.5307 27.3959C38.5307 23.3605 36.8909 19.4962 33.9815 16.6515L32.2337 18.439C34.6683 20.8194 36.0307 24.0419 36.0307 27.3959H38.5307ZM33.9815 16.6515C31.0731 13.8077 27.1343 12.2149 23.033 12.2149L23.033 14.7149C26.4892 14.7149 29.7982 16.0576 32.2337 18.439L33.9815 16.6515ZM23.033 12.2149C18.9318 12.2149 14.993 13.8077 12.0846 16.6515L13.8323 18.439C16.2678 16.0576 19.5769 14.7149 23.033 14.7149L23.033 12.2149ZM12.0846 16.6515C9.17518 19.4962 7.53542 23.3605 7.53542 27.3959L10.0354 27.3959C10.0354 24.0419 11.3978 20.8194 13.8323 18.439L12.0846 16.6515ZM8.78542 28.6459L23.033 28.6459L23.033 26.1459L8.78542 26.1459L8.78542 28.6459ZM23.033 28.6459H37.2807V26.1459H23.033V28.6459ZM29.0321 27.3968C29.0321 25.62 28.4459 23.8801 27.3514 22.5667L25.4309 24.1672C26.1176 24.9913 26.5321 26.1506 26.5321 27.3968H29.0321ZM27.3514 22.5667C26.2514 21.2467 24.7052 20.4477 23.0329 20.4477L23.0329 22.9477C23.8798 22.9477 24.7496 23.3497 25.4309 24.1672L27.3514 22.5667ZM23.0329 20.4477C21.3607 20.4477 19.8145 21.2467 18.7145 22.5667L20.635 24.1672C21.3163 23.3497 22.1861 22.9477 23.0329 22.9477L23.0329 20.4477ZM18.7145 22.5667C17.6199 23.8801 17.0337 25.62 17.0337 27.3968L19.5337 27.3968C19.5337 26.1506 19.9482 24.9913 20.635 24.1672L18.7145 22.5667ZM18.284 28.6468L23.0333 28.6459L23.0328 26.1459L18.2835 26.1468L18.284 28.6468ZM23.0328 28.6459L27.7819 28.6468L27.7824 26.1468L23.0333 26.1459L23.0328 28.6459ZM15.75 26.5C15.75 24.6747 16.6231 22.8481 17.9721 21.4585C19.3312 20.0586 21.0263 19.25 22.5 19.25V16.75C20.1743 16.75 17.8695 17.9751 16.1784 19.7171C14.4773 21.4693 13.25 23.8927 13.25 26.5H15.75ZM36.0016 22.8406C38.0975 20.4654 40.4323 20.0644 42.1305 20.6602C43.8457 21.2621 45.2124 22.976 45.2124 25.4963H47.7124C47.7124 22.0011 45.7547 19.2825 42.9582 18.3012C40.1446 17.314 36.7804 18.1794 34.127 21.1866L36.0016 22.8406ZM32.515 17.5801C32.515 16.3659 33.3255 15.1747 34.4271 14.6483C34.9565 14.3953 35.5138 14.3161 36.0467 14.4326C36.5716 14.5473 37.1684 14.8726 37.7504 15.5935L39.6956 14.0231C38.8031 12.9176 37.7304 12.2416 36.5805 11.9902C35.4386 11.7407 34.3157 11.9307 33.3492 12.3926C31.459 13.2959 30.015 15.3169 30.015 17.5801L32.515 17.5801ZM41.2773 16.0794C42.4232 15.2705 43.5973 15.1867 44.4487 15.5072C45.2764 15.8187 45.919 16.5491 46.0208 17.6997L48.5111 17.4795C48.3251 15.3764 47.0606 13.8191 45.3294 13.1675C43.6218 12.5247 41.585 12.8021 39.8356 14.037L41.2773 16.0794ZM49.1145 20.2283C50.7221 19.9936 51.5465 20.5162 51.8921 21.1401C52.2853 21.8501 52.3751 23.2231 51.3601 25.2531L53.5961 26.3711C54.7883 23.9869 55.0417 21.667 54.079 19.9288C53.0686 18.1046 51.0174 17.424 48.7533 17.7546L49.1145 20.2283ZM46.0208 17.6997C46.0889 18.4703 46.4932 19.1374 47.0135 19.5838C47.535 20.0313 48.2854 20.3494 49.1145 20.2283L48.7533 17.7546C48.785 17.7499 48.7369 17.7684 48.6415 17.6866C48.5993 17.6503 48.5645 17.6068 48.5411 17.564C48.5179 17.5215 48.5121 17.4917 48.5111 17.4795L46.0208 17.6997ZM37.7504 15.5935C38.6043 16.6513 40.1819 16.8527 41.2773 16.0794L39.8356 14.037C39.8356 14.037 39.8344 14.0379 39.8315 14.0391C39.8286 14.0404 39.8237 14.0422 39.8166 14.0438C39.8017 14.0472 39.7812 14.0487 39.7582 14.0456C39.7066 14.0386 39.6911 14.0176 39.6956 14.0231L37.7504 15.5935ZM17.2679 15.7454L8.08611 6.5636L6.31834 8.33137L15.5001 17.5132L17.2679 15.7454ZM47.0618 15.8988L59.4097 2.60105L57.5777 0.899924L45.2298 14.1977L47.0618 15.8988Z" />
</svg>
