<svg width="65" height="64" viewBox="0 0 65 64" fill="none" xmlns="http://www.w3.org/2000/svg">
<path d="M2.06123 31.1415L3.55395 30.9939L2.06123 31.1415ZM62.6911 31.1414L64.1842 31.2853L64.1842 31.2853L62.6911 31.1414ZM37.2807 27.3959V28.8959H38.7807V27.3959H37.2807ZM23.033 13.4649L23.033 11.9649L23.033 13.4649ZM12.9584 17.5452L14.0071 18.6177L14.0071 18.6177L12.9584 17.5452ZM8.78542 27.3959L7.28542 27.3959L7.28542 28.8959L8.78542 28.8959L8.78542 27.3959ZM27.7821 27.3968L27.7819 28.8968L29.2821 28.8971V27.3968H27.7821ZM26.3911 23.367L25.2388 24.3272L25.2388 24.3272L26.3911 23.367ZM23.0329 21.6977L23.0329 20.1977L23.0329 21.6977ZM19.6747 23.367L20.8271 24.3272L20.8271 24.3272L19.6747 23.367ZM18.2837 27.3968L16.7837 27.3968L16.7837 28.8971L18.284 28.8968L18.2837 27.3968ZM22.3999 20.6639C23.2283 20.6639 23.8999 19.9923 23.8999 19.1639C23.8999 18.3354 23.2283 17.6639 22.3999 17.6639V20.6639ZM38.723 14.8083L39.8901 13.866L39.8901 13.866L38.723 14.8083ZM40.5564 15.0582L41.4215 16.2837L41.4215 16.2837L40.5564 15.0582ZM47.2659 17.5896L45.7718 17.7218L45.7718 17.7218L47.2659 17.5896ZM48.9339 18.9914L48.7172 17.5072L48.7172 17.5072L48.9339 18.9914ZM8.26288 6.38682C7.6771 5.80104 6.72735 5.80104 6.14156 6.38682C5.55578 6.97261 5.55578 7.92236 6.14156 8.50814L8.26288 6.38682ZM59.5929 2.77117C60.1566 2.1641 60.1215 1.215 59.5144 0.651298C58.9074 0.0875939 57.9583 0.122746 57.3945 0.729812L59.5929 2.77117ZM37.9139 55.1739C42.7037 55.1739 47.5862 52.6245 51.233 48.7681C54.896 44.8945 57.4609 39.552 57.4609 33.7273H54.4609C54.4609 38.6674 52.2766 43.2982 49.0533 46.7068C45.8137 50.1325 41.6727 52.1739 37.9139 52.1739V55.1739ZM2.76971 37.7626H15.1176V34.7626H2.76971V37.7626ZM6.25253 45.9945H20.1835V42.9945H6.25253V45.9945ZM11.635 54.2258H26.5158V51.2258H11.635V54.2258ZM0.568501 31.289C2.64735 52.3214 17.4455 63.1836 32.388 63.2501C47.3431 63.3167 62.1317 52.5704 64.1842 31.2853L61.198 30.9974C59.2908 50.7762 45.769 60.3096 32.4013 60.2501C19.021 60.1906 5.48401 50.5209 3.55395 30.9939L0.568501 31.289ZM57.9264 24.631H6.8199V27.631H57.9264V24.631ZM64.1842 31.2853C64.543 27.5639 61.4785 24.631 57.9264 24.631V27.631C59.8971 27.631 61.3693 29.2214 61.198 30.9974L64.1842 31.2853ZM3.55395 30.9939C3.37882 29.2221 4.84823 27.631 6.8199 27.631V24.631C3.26872 24.631 0.200396 27.5648 0.568501 31.289L3.55395 30.9939ZM38.7807 27.3959C38.7807 23.2924 37.1132 19.3639 34.1563 16.4727L32.0589 18.6177C34.446 20.9517 35.7807 24.11 35.7807 27.3959H38.7807ZM34.1563 16.4727C31.2006 13.5827 27.1988 11.9649 23.033 11.9649L23.033 14.9649C26.4247 14.9649 29.6708 16.2826 32.0589 18.6177L34.1563 16.4727ZM23.033 11.9649C18.8673 11.9649 14.8655 13.5827 11.9098 16.4727L14.0071 18.6177C16.3953 16.2826 19.6414 14.9649 23.033 14.9649L23.033 11.9649ZM11.9098 16.4727C8.95292 19.3638 7.28542 23.2924 7.28542 27.3959L10.2854 27.3959C10.2854 24.11 11.6201 20.9517 14.0071 18.6177L11.9098 16.4727ZM8.78542 28.8959L23.033 28.8959L23.033 25.8959L8.78542 25.8959L8.78542 28.8959ZM23.033 28.8959H37.2807V25.8959H23.033V28.8959ZM29.2821 27.3968C29.2821 25.567 28.6788 23.769 27.5435 22.4067L25.2388 24.3272C25.8848 25.1024 26.2821 26.2037 26.2821 27.3968H29.2821ZM27.5435 22.4067C26.4015 21.0364 24.7878 20.1977 23.0329 20.1977L23.0329 23.1977C23.7972 23.1977 24.5994 23.56 25.2388 24.3272L27.5435 22.4067ZM23.0329 20.1977C21.2781 20.1977 19.6643 21.0364 18.5224 22.4067L20.8271 24.3272C21.4664 23.56 22.2686 23.1977 23.0329 23.1977L23.0329 20.1977ZM18.5224 22.4067C17.3871 23.769 16.7837 25.567 16.7837 27.3968L19.7837 27.3968C19.7837 26.2037 20.1811 25.1024 20.8271 24.3272L18.5224 22.4067ZM18.284 28.8968L23.0333 28.8959L23.0328 25.8959L18.2835 25.8968L18.284 28.8968ZM23.0328 28.8959L27.7819 28.8968L27.7824 25.8968L23.0333 25.8959L23.0328 28.8959ZM16.9344 26.446C16.9344 22.8418 19.429 20.6639 22.3999 20.6639V17.6639C17.7721 17.6639 13.9344 21.185 13.9344 26.446H16.9344ZM36.1891 23.006C38.2292 20.694 40.4611 20.3394 42.0477 20.8961C43.6548 21.46 44.9624 23.0734 44.9624 25.4963H47.9624C47.9624 21.9036 45.9456 19.0845 43.041 18.0653C40.1159 17.039 36.6487 17.9509 33.9396 21.0212L36.1891 23.006ZM32.765 17.5801C32.765 16.4708 33.5122 15.3626 34.5349 14.8738C35.0206 14.6417 35.5213 14.5737 35.9933 14.6768C36.4558 14.7779 37.0049 15.0681 37.5559 15.7505L39.8901 13.866C38.9665 12.7221 37.8462 12.011 36.6339 11.746C35.4311 11.4831 34.2516 11.6843 33.2414 12.167C31.2724 13.108 29.765 15.212 29.765 17.5801L32.765 17.5801ZM41.4215 16.2837C42.5071 15.5174 43.5948 15.4529 44.3606 15.7412C45.098 16.0187 45.6784 16.6664 45.7718 17.7218L48.7601 17.4575C48.5657 15.2591 47.2391 13.6192 45.4175 12.9335C43.6243 12.2585 41.5012 12.5552 39.6914 13.8328L41.4215 16.2837ZM49.1506 20.4757C50.6926 20.2506 51.3943 20.7574 51.6734 21.2612C52.0097 21.8684 52.1337 23.1467 51.1365 25.1413L53.8198 26.4829C55.0296 24.0633 55.3174 21.6487 54.2977 19.8077C53.2208 17.8634 51.0469 17.167 48.7172 17.5072L49.1506 20.4757ZM45.7718 17.7218C45.8464 18.5662 46.2881 19.2908 46.8507 19.7736C47.4148 20.2576 48.2355 20.6093 49.1506 20.4757L48.7172 17.5072C48.7742 17.4989 48.8128 17.5085 48.8247 17.5125C48.8303 17.5144 48.8303 17.515 48.8256 17.5123C48.8209 17.5096 48.8134 17.5046 48.8043 17.4968C48.7952 17.489 48.7863 17.4799 48.7782 17.4699C48.7701 17.46 48.7643 17.451 48.7605 17.444C48.7521 17.4287 48.7578 17.432 48.7601 17.4575L45.7718 17.7218ZM37.5559 15.7505C38.4938 16.9123 40.22 17.1318 41.4215 16.2837L39.6914 13.8328C39.7485 13.7925 39.7874 13.7973 39.7917 13.7979C39.7965 13.7985 39.8414 13.8057 39.8901 13.866L37.5559 15.7505ZM17.4447 15.5686L8.26288 6.38682L6.14156 8.50814L15.3234 17.6899L17.4447 15.5686ZM47.245 16.0689L59.5929 2.77117L57.3945 0.729812L45.0466 14.0276L47.245 16.0689Z" fill="#65BC30"/>
</svg>
