<svg width="35" height="67" viewBox="0 0 35 67" fill="none" xmlns="http://www.w3.org/2000/svg">
<path d="M17.5 60.2757L17.5 61.2757L17.5 60.2757ZM24.1897 37.5171C24.1897 36.9648 23.7419 36.5171 23.1897 36.5171C22.6374 36.5171 22.1897 36.9648 22.1897 37.5171H24.1897ZM18.069 56.8619L17.877 55.8805L17.8645 55.8829L17.852 55.8857L18.069 56.8619ZM22.1897 34.1033C22.1897 34.6555 22.6374 35.1033 23.1897 35.1033C23.7419 35.1033 24.1897 34.6555 24.1897 34.1033H22.1897ZM23.7586 26.1377L23.7221 27.1371L23.7404 27.1377H23.7586V26.1377ZM17.6088 1.67058L17.9609 2.60652L17.9609 2.60652L17.6088 1.67058ZM20.6876 19.1463C21.2256 19.2712 21.7629 18.9364 21.8879 18.3984C22.0128 17.8605 21.678 17.3231 21.14 17.1981L20.6876 19.1463ZM9.53448 27.1377C10.0868 27.1377 10.5345 26.69 10.5345 26.1377C10.5345 25.5855 10.0868 25.1377 9.53448 25.1377V27.1377ZM18.8343 2.75586L19.8072 2.98736L19.8072 2.98736L18.8343 2.75586ZM24.8966 12.4826L24.3326 13.3084L24.3709 13.3345L24.4115 13.357L24.8966 12.4826ZM32.796 3.67451C33.2734 3.39677 33.4352 2.78464 33.1575 2.30727C32.8797 1.8299 32.2676 1.66807 31.7902 1.94581L32.796 3.67451ZM27.1724 13.8302L26.6334 14.6725L26.6334 14.6725L27.1724 13.8302ZM29.4483 9.63774L29.7645 8.68906L29.7645 8.68906L29.4483 9.63774ZM17.5 59.2757C16.6915 59.2757 16.1914 59.0926 15.9259 58.9134C15.6666 58.7384 15.6552 58.5962 15.6552 58.5688C15.6552 58.5414 15.6666 58.3992 15.9259 58.2241C16.1914 58.0449 16.6915 57.8619 17.5 57.8619V55.8619C16.412 55.8619 15.4897 56.1056 14.8069 56.5664C14.118 57.0315 13.6552 57.7427 13.6552 58.5688C13.6552 59.3949 14.118 60.1061 14.8069 60.5711C15.4897 61.032 16.412 61.2757 17.5 61.2757L17.5 59.2757ZM17.5 57.8619C18.3086 57.8619 18.8086 58.0449 19.0742 58.2241C19.3335 58.3992 19.3448 58.5414 19.3448 58.5688C19.3448 58.5962 19.3335 58.7384 19.0742 58.9134C18.8086 59.0926 18.3086 59.2757 17.5 59.2757L17.5 61.2757C18.588 61.2757 19.5104 61.032 20.1931 60.5711C20.8821 60.1061 21.3448 59.3948 21.3448 58.5688C21.3448 57.7427 20.8821 57.0315 20.1931 56.5664C19.5104 56.1056 18.588 55.8619 17.5 55.8619V57.8619ZM22.1897 37.5171C22.1897 40.5005 21.2176 45.1715 20.0792 49.1829C19.5138 51.1751 18.9186 52.9653 18.4035 54.2587C18.1443 54.9095 17.9157 55.4083 17.7315 55.7377C17.6379 55.9052 17.573 55.9974 17.5397 56.0372C17.4644 56.1275 17.5779 55.939 17.877 55.8805L18.2609 57.8433C18.6973 57.7579 18.971 57.4437 19.0753 57.3187C19.2216 57.1434 19.3558 56.9309 19.4772 56.7137C19.7233 56.2735 19.9892 55.6826 20.2615 54.9987C20.8095 53.6228 21.4258 51.7637 22.0033 49.7289C23.1506 45.6862 24.1897 40.7923 24.1897 37.5171H22.1897ZM31.4931 29.5205C30.1194 31.3521 29.0119 33.8885 28.0203 36.5952C27.0315 39.2946 26.1019 42.3303 25.1593 45.088C24.201 47.892 23.2141 50.4586 22.0685 52.419C20.9078 54.4051 19.7008 55.5654 18.3954 55.8917L18.8805 57.832C20.9889 57.3049 22.5556 55.5492 23.7952 53.4281C25.0499 51.2813 26.0899 48.5494 27.0519 45.7349C28.0296 42.8741 28.9136 39.9712 29.8983 37.2832C30.8803 34.6025 31.9065 32.3027 33.0931 30.7205L31.4931 29.5205ZM2.373 30.5504C5.18686 36.4595 6.5469 42.6712 8.30266 47.8653C9.16321 50.4111 10.1278 52.722 11.4344 54.4802C12.7644 56.2698 14.4769 57.5214 16.7896 57.8518L17.0725 55.8719C15.4024 55.6334 14.1278 54.7514 13.0397 53.2872C11.9282 51.7916 11.0437 49.7286 10.1973 47.2248C8.5393 42.3198 7.05452 35.7297 4.17872 29.6906L2.373 30.5504ZM17.4998 59.8446C12.8355 59.8446 9.93602 61.0025 8.59163 62.4366C7.93234 63.1398 7.50759 64.091 7.83618 65.019C8.1824 65.9967 9.15584 66.3964 10.1033 66.3964V64.3964C9.62851 64.3964 9.67747 64.2271 9.72147 64.3514C9.74786 64.4259 9.64318 64.2391 10.0507 63.8044C10.8399 62.9626 13.061 61.8446 17.4998 61.8446V59.8446ZM17.4998 61.8446C21.9242 61.8446 24.3298 62.9566 25.2777 63.8487C25.7868 64.3279 25.7051 64.5546 25.7263 64.4619C25.779 64.232 25.9556 64.3964 25.4655 64.3964V66.3964C26.3977 66.3964 27.4277 65.9918 27.6758 64.9084C27.8925 63.9622 27.3484 63.0511 26.6484 62.3923C25.178 61.0085 22.1784 59.8446 17.4998 59.8446V61.8446ZM10.8226 30.8454C11.2431 33.509 11.5251 36.5343 11.7921 39.5867C12.0577 42.624 12.3089 45.6931 12.6683 48.3884C13.0247 51.062 13.5004 53.4814 14.2574 55.1798C14.6363 56.0298 15.1266 56.7954 15.7945 57.3034C16.506 57.8444 17.3578 58.0443 18.2859 57.8381L17.852 55.8857C17.5 55.9639 17.2494 55.8972 17.0052 55.7114C16.7175 55.4926 16.3987 55.0713 16.0842 54.3656C15.4543 52.9525 15.0054 50.7846 14.6507 48.1241C14.2989 45.4854 14.0522 42.4737 13.7845 39.4124C13.518 36.3662 13.231 33.2751 12.7981 30.5335L10.8226 30.8454ZM22.1897 30.6895V34.1033H24.1897V30.6895H22.1897ZM0 27.8446V28.1291H2V27.8446H0ZM2.99138 31.1205H32.0086V29.1205H2.99138V31.1205ZM23.7951 25.1384C18.2003 24.9341 14.7895 23.9376 12.3375 22.3998C9.87701 20.8566 8.27108 18.7045 6.38038 15.9056L4.72307 17.0251C6.61755 19.8297 8.42385 22.306 11.2749 24.0941C14.1345 25.8877 17.9345 26.9257 23.7221 27.1371L23.7951 25.1384ZM6.53947 16.6214C6.78557 15.0639 7.11369 14.1411 7.64024 13.4717C8.16215 12.8081 8.9746 12.2732 10.458 11.7107L9.74888 9.84065C8.12744 10.4555 6.91866 11.154 6.06824 12.2352C5.22245 13.3105 4.82713 14.6439 4.56398 16.3093L6.53947 16.6214ZM11.0912 10.6195C10.768 8.57512 11.2006 7.13466 12.2473 5.94862C13.3512 4.69773 15.2167 3.63909 17.9609 2.60652L17.2566 0.734642C14.4368 1.79563 12.1868 2.99451 10.7477 4.62526C9.25135 6.32087 8.71332 8.38618 9.11571 10.9318L11.0912 10.6195ZM32.0086 25.1377H31.7241V27.1377H32.0086V25.1377ZM31.7241 25.1377H23.7586V27.1377H31.7241V25.1377ZM9.2072 11.2192C10.0593 12.941 10.8005 14.5222 12.4618 15.8554C14.103 17.1725 16.5517 18.1858 20.6876 19.1463L21.14 17.1981C17.0847 16.2564 14.9959 15.3247 13.7136 14.2956C12.4513 13.2827 11.8829 12.1167 10.9997 10.3321L9.2072 11.2192ZM9.53448 25.1377H2.7069V27.1377H9.53448V25.1377ZM4.81884 15.785C3.25245 17.4723 2.17207 18.9555 1.65555 20.6449C1.1341 22.3504 1.22505 24.1377 1.73193 26.3601L3.68186 25.9154C3.2128 23.8587 3.19085 22.4637 3.56815 21.2296C3.95038 19.9795 4.78038 18.766 6.2846 17.1457L4.81884 15.785ZM17.8615 2.52436C17.5318 3.91003 17.2358 5.45313 18.1234 7.28595C18.9703 9.03462 20.8304 10.9168 24.3326 13.3084L25.4605 11.6568C22.0236 9.30972 20.5327 7.6723 19.9234 6.41419C19.3549 5.24022 19.4973 4.2893 19.8072 2.98736L17.8615 2.52436ZM29.3075 9.14427C29.4183 7.68065 29.6325 6.75291 30.0927 5.99312C30.5516 5.23544 31.3262 4.52966 32.796 3.67451L31.7902 1.94581C30.1928 2.87518 29.0905 3.78725 28.382 4.95702C27.6748 6.12468 27.4312 7.43399 27.3132 8.99329L29.3075 9.14427ZM24.4115 13.357C25.2182 13.8045 25.9587 14.2407 26.6334 14.6725L27.7114 12.9879C26.9933 12.5284 26.2155 12.0706 25.3816 11.6081L24.4115 13.357ZM26.6334 14.6725C29.142 16.2778 30.6414 17.7603 31.3084 19.4089C31.9609 21.0215 31.8942 22.9934 30.7944 25.7694L32.6538 26.506C33.858 23.4664 34.0796 20.9255 33.1624 18.6587C32.2598 16.4279 30.3313 14.6644 27.7114 12.9879L26.6334 14.6725ZM26.6334 14.6725C27.7428 15.3824 28.8593 15.5868 29.8527 15.2932C30.8311 15.004 31.5267 14.2785 31.8923 13.4542C32.2561 12.6341 32.3247 11.6522 31.9901 10.7561C31.6453 9.83272 30.8956 9.06611 29.7645 8.68906L29.132 10.5864C29.7078 10.7783 29.9897 11.1163 30.1164 11.4557C30.2534 11.8224 30.2335 12.2615 30.0641 12.6433C29.8967 13.0208 29.6145 13.2781 29.2859 13.3752C28.9721 13.4679 28.4523 13.462 27.7114 12.9879L26.6334 14.6725ZM29.7645 8.68906C27.9067 8.0698 26.25 8.80683 25.5091 10.1865C24.7749 11.5537 25.0491 13.3495 26.5283 14.5951L27.8166 13.0653C27.0198 12.3943 27.0096 11.6198 27.2711 11.1328C27.5259 10.6583 28.145 10.2574 29.132 10.5864L29.7645 8.68906ZM35 28.1291C35 26.477 33.6607 25.1377 32.0086 25.1377V27.1377C32.5561 27.1377 33 27.5816 33 28.1291H35ZM17.9609 2.60652C17.9678 2.60395 17.9569 2.60883 17.9358 2.60475C17.9176 2.60124 17.9025 2.59306 17.8913 2.58319C17.8802 2.57334 17.8711 2.56006 17.866 2.54428C17.86 2.5258 17.8634 2.51624 17.8615 2.52436L19.8072 2.98736C20.1668 1.47623 18.7274 0.181234 17.2566 0.734642L17.9609 2.60652ZM32.0086 31.1205C33.6607 31.1205 35 29.7812 35 28.1291H33C33 28.6766 32.5561 29.1205 32.0086 29.1205V31.1205ZM0 28.1291C0 29.7812 1.33929 31.1205 2.99138 31.1205V29.1205C2.44386 29.1205 2 28.6766 2 28.1291H0ZM2 27.8446C2 27.4542 2.31649 27.1377 2.7069 27.1377V25.1377C1.21192 25.1377 0 26.3497 0 27.8446H2ZM10.1033 66.3964H25.4655V64.3964H10.1033V66.3964Z" fill="#65BC30"/>
</svg>
