<svg width="60" height="54" viewBox="0 0 60 54" fill="none" xmlns="http://www.w3.org/2000/svg">
<path d="M12.1974 1.21803C11.7655 0.511082 10.8423 0.288082 10.1354 0.719949C9.42844 1.15182 9.20544 2.07501 9.6373 2.78197L12.1974 1.21803ZM11.1866 12.4836L12.4975 13.2126L11.1866 12.4836ZM11.2012 22.5172C11.5821 23.2529 12.4872 23.5405 13.2229 23.1597C13.9586 22.7788 14.2462 21.8736 13.8654 21.138L11.2012 22.5172ZM57.025 1.21803C56.5931 0.511082 55.6699 0.288082 54.963 0.719949C54.256 1.15182 54.033 2.07501 54.4649 2.78197L57.025 1.21803ZM56.0142 12.4836L57.3251 13.2126L56.0142 12.4836ZM56.0288 22.5172C56.4097 23.2529 57.3148 23.5405 58.0505 23.1597C58.7862 22.7788 59.0738 21.8736 58.6929 21.138L56.0288 22.5172ZM49.2664 1.21803C48.8345 0.511082 47.9113 0.288082 47.2043 0.719949C46.4974 1.15182 46.2744 2.07501 46.7063 2.78197L49.2664 1.21803ZM48.2556 12.4836L49.5665 13.2126L48.2556 12.4836ZM48.2702 22.5172C48.651 23.2529 49.5562 23.5405 50.2919 23.1597C51.0276 22.7788 51.3152 21.8736 50.9343 21.138L48.2702 22.5172ZM37.3277 45.187C38.1561 45.187 38.8277 44.5154 38.8277 43.687C38.8277 42.8586 38.1561 42.187 37.3277 42.187V45.187ZM46.1023 42.187C45.2739 42.187 44.6023 42.8586 44.6023 43.687C44.6023 44.5154 45.2739 45.187 46.1023 45.187V42.187ZM4.43879 1.21803C4.00692 0.511082 3.08372 0.288082 2.37677 0.719949C1.66982 1.15182 1.44682 2.07501 1.87868 2.78197L4.43879 1.21803ZM3.428 12.4836L4.73892 13.2126L3.428 12.4836ZM3.4426 22.5172C3.82347 23.2529 4.72862 23.5405 5.4643 23.1597C6.19998 22.7788 6.48762 21.8736 6.10675 21.138L3.4426 22.5172ZM9.6373 2.78197C10.7601 4.61988 11.2278 6.00958 11.2571 7.29123C11.2864 8.57029 10.8837 9.94199 9.87569 11.7545L12.4975 13.2126C13.6442 11.1508 14.3025 9.23802 14.2563 7.22257C14.2103 5.2097 13.4661 3.2948 12.1974 1.21803L9.6373 2.78197ZM9.87569 11.7545C8.84415 13.6094 8.43969 15.1652 8.8034 16.9749C9.12613 18.5807 10.0618 20.3162 11.2012 22.5172L13.8654 21.138C12.6254 18.7428 11.9628 17.4694 11.7446 16.3838C11.5674 15.5021 11.6793 14.6839 12.4975 13.2126L9.87569 11.7545ZM54.4649 2.78197C55.5876 4.61988 56.0554 6.00958 56.0847 7.29123C56.114 8.57029 55.7113 9.94199 54.7033 11.7545L57.3251 13.2126C58.4717 11.1508 59.1301 9.23802 59.0839 7.22257C59.0378 5.2097 58.2937 3.2948 57.025 1.21803L54.4649 2.78197ZM54.7033 11.7545C53.6717 13.6094 53.2673 15.1652 53.631 16.9749C53.9537 18.5807 54.8893 20.3162 56.0288 22.5172L58.6929 21.138C57.4529 18.7428 56.7903 17.4694 56.5722 16.3838C56.395 15.5021 56.5069 14.6839 57.3251 13.2126L54.7033 11.7545ZM46.7063 2.78197C47.829 4.61988 48.2968 6.00958 48.3261 7.29123C48.3554 8.57029 47.9526 9.94199 46.9446 11.7545L49.5665 13.2126C50.7131 11.1508 51.3714 9.23802 51.3253 7.22257C51.2792 5.2097 50.535 3.2948 49.2664 1.21803L46.7063 2.78197ZM46.9446 11.7545C45.9131 13.6094 45.5086 15.1652 45.8724 16.9749C46.1951 18.5807 47.1307 20.3162 48.2702 22.5172L50.9343 21.138C49.6943 18.7428 49.0317 17.4694 48.8135 16.3838C48.6363 15.5021 48.7483 14.6839 49.5665 13.2126L46.9446 11.7545ZM37.3277 42.187H9.15642V45.187H37.3277V42.187ZM9.15642 53.4998H51.8751V50.4998H9.15642V53.4998ZM51.8751 42.187H46.1023V45.187H51.8751V42.187ZM57.5316 47.8434C57.5316 44.7195 54.9991 42.187 51.8751 42.187V45.187C53.3422 45.187 54.5316 46.3763 54.5316 47.8434H57.5316ZM51.8751 53.4998C54.9991 53.4998 57.5316 50.9674 57.5316 47.8434H54.5316C54.5316 49.3105 53.3422 50.4998 51.8751 50.4998V53.4998ZM3.50001 47.8434C3.50001 50.9674 6.03247 53.4998 9.15642 53.4998V50.4998C7.68932 50.4998 6.50001 49.3105 6.50001 47.8434H3.50001ZM9.15642 42.187C6.03247 42.187 3.50001 44.7195 3.50001 47.8434H6.50001C6.50001 46.3763 7.68932 45.187 9.15642 45.187V42.187ZM10.6564 42.7641C10.6564 35.8869 13.1666 30.8761 16.8341 27.5786C20.5279 24.2576 25.493 22.589 30.5077 22.6161C35.5225 22.6432 40.4946 24.366 44.1952 27.7065C47.8699 31.0237 50.3751 36.0095 50.3751 42.7641H53.3751C53.3751 35.2022 50.5405 29.3929 46.2054 25.4796C41.8963 21.5898 36.1887 19.6468 30.5239 19.6162C24.8589 19.5855 19.1443 21.4672 14.8283 25.3477C10.4861 29.2519 7.65641 35.0939 7.65641 42.7641H10.6564ZM34.4422 16.4395C34.4422 18.4167 32.8394 20.0196 30.8621 20.0196V23.0196C34.4962 23.0196 37.4422 20.0736 37.4422 16.4395H34.4422ZM30.8621 20.0196C28.8849 20.0196 27.2821 18.4167 27.2821 16.4395H24.2821C24.2821 20.0736 27.2281 23.0196 30.8621 23.0196V20.0196ZM27.2821 16.4395C27.2821 14.4623 28.8849 12.8594 30.8621 12.8594V9.85942C27.2281 9.85942 24.2821 12.8054 24.2821 16.4395H27.2821ZM30.8621 12.8594C32.8394 12.8594 34.4422 14.4623 34.4422 16.4395H37.4422C37.4422 12.8054 34.4962 9.85942 30.8621 9.85942V12.8594ZM1.87868 2.78197C3.00144 4.61988 3.46917 6.00958 3.49852 7.29123C3.5278 8.57029 3.12505 9.94199 2.11707 11.7545L4.73892 13.2126C5.88553 11.1508 6.54387 9.23802 6.49773 7.22257C6.45165 5.2097 5.70745 3.2948 4.43879 1.21803L1.87868 2.78197ZM2.11707 11.7545C1.08554 13.6094 0.681069 15.1652 1.04478 16.9749C1.36751 18.5807 2.30313 20.3162 3.4426 22.5172L6.10675 21.138C4.86674 18.7428 4.20414 17.4694 3.98597 16.3838C3.80877 15.5021 3.9207 14.6839 4.73892 13.2126L2.11707 11.7545Z" fill="white"/>
</svg>
