<svg id="piment" width="51" height="51" viewBox="0 0 51 51" fill="none" xmlns="http://www.w3.org/2000/svg">
<g clip-path="url(#clip0)">
<g id="Vector">
<mask id="path-1-inside-1" fill="white">
<path d="M32.9378 26.209V17.2721L27.6834 14.8596C21.8583 21.7904 19.6808 39.8436 5.57812 39.8436C4.09871 39.8436 2.6799 40.4313 1.63379 41.4774C0.587694 42.5235 0 43.9423 0 45.4217C0 46.9011 0.587694 48.3199 1.63379 49.366C2.6799 50.4121 4.09871 50.9998 5.57812 50.9998C26.7591 50.9998 42.4983 38.7608 47.3324 30.048L43.6419 26.209H32.9378ZM45.9956 13.4222C49.1991 7.46157 47.5316 2.63749 45.6828 0.298664C45.6123 0.211196 45.5241 0.139629 45.424 0.0886614C45.3238 0.0376933 45.2141 0.00847569 45.1019 0.0029259C44.9896 -0.00262389 44.8775 0.0156196 44.7728 0.0564592C44.6682 0.0972988 44.5733 0.159811 44.4945 0.239894L42.2135 2.53091C42.0825 2.66396 42.002 2.83849 41.9859 3.02447C41.9697 3.21044 42.0188 3.39625 42.1248 3.54991C42.8081 4.58187 43.8231 7.0462 41.9854 10.7537C40.1897 9.96872 38.2514 9.56313 36.2917 9.56233C33.5026 9.56233 30.9128 10.413 28.6875 11.8125L36.1253 15.2281V23.0216H44.9995L50.4462 28.6873C50.7709 27.4303 51 26.1343 51 24.7717C51.002 22.6358 50.5579 20.523 49.6961 18.5686C48.8344 16.6142 47.574 14.8613 45.9956 13.4222Z"/>
</mask>
<path d="M32.9378 26.209V17.2721L27.6834 14.8596C21.8583 21.7904 19.6808 39.8436 5.57812 39.8436C4.09871 39.8436 2.6799 40.4313 1.63379 41.4774C0.587694 42.5235 0 43.9423 0 45.4217C0 46.9011 0.587694 48.3199 1.63379 49.366C2.6799 50.4121 4.09871 50.9998 5.57812 50.9998C26.7591 50.9998 42.4983 38.7608 47.3324 30.048L43.6419 26.209H32.9378ZM45.9956 13.4222C49.1991 7.46157 47.5316 2.63749 45.6828 0.298664C45.6123 0.211196 45.5241 0.139629 45.424 0.0886614C45.3238 0.0376933 45.2141 0.00847569 45.1019 0.0029259C44.9896 -0.00262389 44.8775 0.0156196 44.7728 0.0564592C44.6682 0.0972988 44.5733 0.159811 44.4945 0.239894L42.2135 2.53091C42.0825 2.66396 42.002 2.83849 41.9859 3.02447C41.9697 3.21044 42.0188 3.39625 42.1248 3.54991C42.8081 4.58187 43.8231 7.0462 41.9854 10.7537C40.1897 9.96872 38.2514 9.56313 36.2917 9.56233C33.5026 9.56233 30.9128 10.413 28.6875 11.8125L36.1253 15.2281V23.0216H44.9995L50.4462 28.6873C50.7709 27.4303 51 26.1343 51 24.7717C51.002 22.6358 50.5579 20.523 49.6961 18.5686C48.8344 16.6142 47.574 14.8613 45.9956 13.4222Z" stroke="#2C630B" stroke-width="4" mask="url(#path-1-inside-1)"/>
</g>
</g>
<defs>
<clipPath id="clip0">
<rect width="51" height="51" fill="white"/>
</clipPath>
</defs>
</svg>
