<svg width="58" height="58" viewBox="0 0 58 58" fill="none" xmlns="http://www.w3.org/2000/svg">
<path d="M29 32.625C38.0059 32.625 45.3125 25.3184 45.3125 16.3125C45.3125 7.30664 38.0059 0 29 0C19.9941 0 12.6875 7.30664 12.6875 16.3125C12.6875 25.3184 19.9941 32.625 29 32.625ZM43.5 36.25H37.2582C34.7434 37.4055 31.9453 38.0625 29 38.0625C26.0547 38.0625 23.268 37.4055 20.7418 36.25H14.5C6.49102 36.25 0 42.741 0 50.75V52.5625C0 55.5645 2.43555 58 5.4375 58H52.5625C55.5645 58 58 55.5645 58 52.5625V50.75C58 42.741 51.509 36.25 43.5 36.25Z" fill="#2C630B"/>
</svg>
